<svg xmlns="http://www.w3.org/2000/svg" viewBox="0 0 320 76" fill="none" aria-hidden="true">
  <title>Megam Drapes — full lockup for dark backgrounds</title>
  <defs>
    <linearGradient id="gD" x1="0%" y1="0%" x2="100%" y2="100%">
      <stop offset="0%" stop-color="#F0E4C4"/>
      <stop offset="50%" stop-color="#D4B76A"/>
      <stop offset="100%" stop-color="#C4A35A"/>
    </linearGradient>
    <linearGradient id="wineD" x1="0%" y1="100%" x2="100%" y2="0%">
      <stop offset="0%" stop-color="#FAF6F0"/>
      <stop offset="100%" stop-color="#E8DFD4"/>
    </linearGradient>
    <linearGradient id="wordGoldD" x1="0%" y1="50%" x2="100%" y2="50%">
      <stop offset="0%" stop-color="#E8D5A3"/>
      <stop offset="100%" stop-color="#C4A35A"/>
    </linearGradient>
  </defs>
  <g transform="translate(2,6) scale(0.58)">
    <path fill="#FAF6F0" fill-opacity="0.92" d="M50 4C24 4 6 26 6 52c0 18 10 32 26 38 6 2 12 3 18 3 28 0 44-16 44-41C94 26 76 4 50 4Z"/>
    <path fill="url(#gD)" fill-opacity="0.95" d="M50 14c-18 0-32 14-32 34 0 12 6 22 16 27 20-8 32-28 32-50 0-6-1-11-4-11h-12Z"/>
    <path stroke="#5C1F2E" stroke-width="1.5" stroke-linecap="round" fill="none" d="M18 48c12-10 32-12 50-4M22 62c10-6 26-7 40-2"/>
  </g>
  <path stroke="url(#gD)" stroke-width="1.1" stroke-linecap="round" fill="none" opacity="0.95" d="M70 36c6-5 14-7 22-5"/>
  <g fill="url(#wineD)" transform="translate(96, 16)">
    <path d="M0 0v24h3.2V8.5l6.8 15.5h1.8l6.8-15.5V24H22V0h-3.8L11 17 3.8 0H0z"/>
    <path transform="translate(26,0)" d="M0 0h14.5v3H3.3v7.5h9.2v3H3.3V21h11.5v3H0V0z"/>
    <path transform="translate(52,0)" d="M8.5 0H3v24h3V13.5h4.5c3 0 5-2 5-4.8V4.8C15.5 2 13.5 0 10.5 0zm0 3c1.4 0 2.3 0.9 2.3 2.5v3.2c0 1.6-0.9 2.5-2.5 2.5H6V3h2.5z"/>
    <path transform="translate(78,0)" d="M7 0L0 24h3.4l5-16.2 5 16.2h3.4L9.5 0H7z"/>
    <path transform="translate(96,0)" d="M0 0v24h3.2V8.5l6.8 15.5h1.8l6.8-15.5V24H22V0h-3.8L11 17 3.8 0H0z"/>
  </g>
  <g fill="url(#wordGoldD)" transform="translate(96, 44)">
    <path d="M0 0h3v20H0V0zm3 0c5.5 0 9 3.5 9 8.8v2.4c0 5.3-3.5 8.8-9 8.8H3v-3h6c3.2 0 5.5-2 5.5-5.5v-2.5C14.5 5.5 12.2 3.5 9 3.5H3V0h0z"/>
    <path transform="translate(22,0)" d="M0 0h12v2.8H3v6h7.5v2.8H3v5.6h9V20H0V0z"/>
    <path transform="translate(40,0)" d="M0 0h8c4.5 0 7 2.6 7 6.8 0 4.3-2.5 7-7 7H3V20H0V0zm3 2.8V11h4.8c2.6 0 4-1.4 4-3.8 0-2.4-1.4-3.4-3.8-3.4H3z"/>
    <path transform="translate(58,0)" d="M0 0h3v20H0V0z"/>
    <path transform="translate(66,0)" d="M0 0h9.5c3.2 0 5 1.8 5 4.6 0 2.2-1 3.6-2.8 4.2L16.5 20h-3.3l-3-6.8H3V20H0V0zm3 2.8v6.4h5.8c1.8 0 2.8-0.9 2.8-2.6 0-1.8-1-2.8-3-2.8H3z"/>
    <path transform="translate(88,0)" d="M0 0h11.5v2.8H3v5.5h7.5v2.8H3v4.1h8.5V20H0V0z"/>
  </g>
</svg>
